<?xml version="1.0" encoding="UTF-8" standalone="no"?>
<svg
   xmlns:dc="http://purl.org/dc/elements/1.1/"
   xmlns:cc="http://creativecommons.org/ns#"
   xmlns:rdf="http://www.w3.org/1999/02/22-rdf-syntax-ns#"
   xmlns:svg="http://www.w3.org/2000/svg"
   xmlns="http://www.w3.org/2000/svg"
   xmlns:sodipodi="http://sodipodi.sourceforge.net/DTD/sodipodi-0.dtd"
   xmlns:inkscape="http://www.inkscape.org/namespaces/inkscape"
   width="128"
   height="128"
   viewBox="0 0 33.866665 33.866665"
   version="1.1"
   id="svg8"
   inkscape:version="1.0.2 (e86c870879, 2021-01-15, custom)"
   sodipodi:docname="icon.svg">
  <defs
     id="defs2">
    <inkscape:perspective
       sodipodi:type="inkscape:persp3d"
       inkscape:vp_x="-4.2067928 : -4.911789 : 1"
       inkscape:vp_y="0 : 1000 : 0"
       inkscape:vp_z="145.08837 : 10.500075 : 1"
       inkscape:persp3d-origin="53.300776 : -81.567776 : 1"
       id="perspective877" />
  </defs>
  <sodipodi:namedview
     id="base"
     pagecolor="#000000"
     bordercolor="#666666"
     borderopacity="1.0"
     inkscape:pageopacity="0"
     inkscape:pageshadow="2"
     inkscape:zoom="2.8"
     inkscape:cx="69.698155"
     inkscape:cy="58.353936"
     inkscape:document-units="mm"
     inkscape:current-layer="layer1"
     inkscape:document-rotation="0"
     showgrid="false"
     inkscape:window-width="1920"
     inkscape:window-height="1027"
     inkscape:window-x="-8"
     inkscape:window-y="-8"
     inkscape:window-maximized="1"
     units="px"
     inkscape:snap-bbox="false"
     inkscape:bbox-paths="true"
     inkscape:bbox-nodes="true"
     inkscape:snap-bbox-edge-midpoints="true"
     inkscape:snap-bbox-midpoints="true"
     inkscape:object-paths="true"
     inkscape:snap-intersection-paths="true"
     inkscape:snap-smooth-nodes="true"
     inkscape:snap-midpoints="true"
     inkscape:snap-object-midpoints="true"
     inkscape:snap-center="true"
     inkscape:snap-text-baseline="true"
     inkscape:snap-grids="true"
     inkscape:snap-page="true"
     inkscape:snap-global="true"
     inkscape:snap-nodes="true"
     inkscape:snap-others="false">
    <inkscape:grid
       type="xygrid"
       id="grid861" />
  </sodipodi:namedview>
  <metadata
     id="metadata5">
    <rdf:RDF>
      <cc:Work
         rdf:about="">
        <dc:format>image/svg+xml</dc:format>
        <dc:type
           rdf:resource="http://purl.org/dc/dcmitype/StillImage" />
        <dc:title />
      </cc:Work>
    </rdf:RDF>
  </metadata>
  <g
     inkscape:label="Livello 1"
     inkscape:groupmode="layer"
     id="layer1">
    <g
       id="g857">
      <path
         style="fill:none;stroke:#008080;stroke-width:1.53292;stroke-linecap:round;stroke-linejoin:round;stroke-miterlimit:4;stroke-dasharray:none;stroke-opacity:1;paint-order:normal"
         d="M 16.933332,16.933332 30.208758,9.268761 16.933332,1.6041898 3.6579064,9.268761 v 15.329142 l 13.2754256,7.664572 13.275426,-7.664572"
         id="path842" />
      <path
         style="fill:none;stroke:#008080;stroke-width:1.53292;stroke-linecap:round;stroke-linejoin:round;stroke-miterlimit:4;stroke-dasharray:none;stroke-opacity:1;paint-order:normal"
         d="M 16.933332,16.933332 8.083048,11.823618"
         id="path844"
         sodipodi:nodetypes="cc" />
      <path
         style="fill:none;stroke:#008080;stroke-width:1.53292;stroke-linecap:round;stroke-linejoin:round;stroke-miterlimit:4;stroke-dasharray:none;stroke-opacity:1;paint-order:normal"
         d="M 16.933332,22.043045 30.208758,14.378473"
         id="path844-2-8" />
      <path
         style="fill:none;stroke:#008080;stroke-width:1.53292;stroke-linecap:round;stroke-linejoin:round;stroke-miterlimit:4;stroke-dasharray:none;stroke-opacity:1;paint-order:normal"
         d="M 16.933332,27.152759 30.208758,19.488187"
         id="path844-2-3" />
      <path
         style="fill:#008080;fill-opacity:1;stroke-width:0.0826542"
         d="m 10.926048,9.8179102 c -0.174401,-0.333675 -0.187617,-0.6290755 -0.04527,-1.0115969 0.104037,-0.2794859 0.167031,-0.3453769 0.492674,-0.5149927 0.339729,-0.1769895 0.679992,-0.1880134 3.77279,-0.12215 l 3.399398,0.072404 0.400226,-0.4742812 c 0.482628,-0.5721311 0.880357,-0.7961914 1.566681,-0.8827745 0.682527,-0.086101 1.081855,0.011739 1.654902,0.405457 0.449499,0.3088418 0.999219,0.9603646 0.904928,1.0725074 -0.01955,0.023327 -0.509004,0.037086 -1.087598,0.030641 -0.658965,-0.0073 -1.082079,0.032381 -1.13254,0.106299 -0.112323,0.164566 -0.07875,1.489518 0.04013,1.5742117 0.05359,0.03818 0.556566,0.07184 1.117706,0.07476 0.561121,0.0029 1.025651,0.03759 1.032282,0.07706 0.0065,0.03944 -0.08829,0.216691 -0.211122,0.393804 -0.535287,0.772426 -1.439626,1.171452 -2.350597,1.036889 -0.467944,-0.06912 -0.611301,-0.130425 -1.047949,-0.44813 -0.301278,-0.219169 -0.573739,-0.480694 -0.673632,-0.646495 l -0.167723,-0.278437 -3.310476,0.06396 c -1.820754,0.03518 -3.43177,0.04662 -3.580019,0.02543 -0.342629,-0.04898 -0.610768,-0.240887 -0.774544,-0.554607 z"
         id="path1026-9-7" />
    </g>
  </g>
</svg>
